<svg xmlns="http://www.w3.org/2000/svg" width="24" height="24" viewBox="0 0 24 24">
<g>
<path d="M 24.00 11.35 L 24.00 12.79 L 20.47 15.90 C18.52,17.60 16.05,19.00 14.97,19.00 C12.44,19.00 12.46,17.82 15.00,16.23 C17.51,14.66 17.65,9.80 15.26,7.40 C13.61,5.75 13.67,5.70 16.51,6.41 C18.15,6.81 20.51,8.09 21.75,9.25 L 24.00 11.35 ZM 11.00 18.41 C11.00,18.73 10.18,19.00 9.19,19.00 C7.01,19.00 2.00,14.02 2.00,11.85 C2.00,9.93 4.73,7.47 7.95,6.49 C10.26,5.78 10.31,5.84 8.70,7.44 C6.46,9.69 6.55,12.16 9.00,15.27 C10.10,16.67 11.00,18.08 11.00,18.41 ZM 13.90 14.09 C11.85,15.38 11.18,15.21 10.07,13.13 C8.91,10.97 9.57,10.00 12.20,10.00 C14.55,10.00 15.76,12.91 13.90,14.09 Z" fill="rgb(229,231,232)"/>
<path d="M 16.91 12.82 C16.85,11.75 16.36,10.53 15.44,9.22 C13.38,6.27 10.43,6.41 8.37,9.55 C7.62,10.70 7.23,11.36 7.24,12.04 C6.81,10.35 7.29,8.85 8.70,7.44 C10.31,5.84 10.26,5.78 7.95,6.49 C6.39,6.96 4.95,7.78 3.88,8.72 C4.13,8.41 4.41,8.10 4.69,7.80 C6.93,5.46 8.20,5.00 12.39,5.00 C16.68,5.00 17.88,5.46 20.70,8.20 L 22.78 10.21 L 21.75 9.25 C20.51,8.09 18.15,6.81 16.51,6.41 C13.67,5.70 13.61,5.75 15.26,7.40 C16.62,8.76 17.16,10.92 16.91,12.82 ZM 4.89 16.35 C3.32,14.88 2.00,13.13 2.00,12.12 C2.00,12.08 2.00,12.04 2.01,12.00 C2.11,13.12 3.39,14.88 4.89,16.35 ZM 8.03 13.87 C8.25,14.20 8.53,14.57 8.85,15.01 C9.40,15.75 9.83,16.36 10.16,16.85 C9.83,16.37 9.43,15.82 9.00,15.27 C8.62,14.79 8.30,14.32 8.03,13.87 ZM 10.80 18.68 C10.61,18.94 10.11,19.00 9.30,19.00 C9.29,19.00 9.28,19.00 9.27,19.00 C9.93,18.99 10.51,18.86 10.80,18.68 Z" fill="rgb(235,236,237)"/>
<path d="M 11.00 18.41 C11.00,18.21 10.67,17.61 10.16,16.85 C9.83,16.36 9.40,15.75 8.85,15.01 C8.53,14.57 8.25,14.20 8.03,13.87 C7.66,13.23 7.39,12.62 7.24,12.04 C7.23,11.36 7.62,10.70 8.37,9.55 C10.43,6.41 13.38,6.27 15.44,9.22 C16.36,10.53 16.85,11.75 16.91,12.82 C16.73,14.26 16.08,15.55 15.00,16.23 C12.78,17.62 12.49,18.70 14.13,18.95 C13.26,18.95 12.22,18.89 10.88,18.80 C10.82,18.79 10.75,18.79 10.69,18.78 C10.73,18.75 10.77,18.72 10.80,18.68 C10.93,18.60 11.00,18.51 11.00,18.41 ZM 4.89 16.35 C5.70,17.14 6.57,17.84 7.37,18.33 C5.44,17.93 3.94,17.35 3.21,16.69 C0.43,14.18 0.00,14.56 0.00,19.50 L 0.00 10.18 L 3.08 7.59 C5.60,5.46 7.18,5.00 11.89,5.00 C11.99,5.00 12.08,5.00 12.18,5.00 C8.16,5.02 6.89,5.50 4.69,7.80 C4.41,8.10 4.13,8.41 3.88,8.72 C2.73,9.72 2.00,10.86 2.00,11.85 C2.00,11.90 2.00,11.95 2.01,12.00 C2.00,12.04 2.00,12.08 2.00,12.12 C2.00,13.13 3.32,14.88 4.89,16.35 ZM 13.90 14.09 C15.76,12.91 14.55,10.00 12.20,10.00 C9.57,10.00 8.91,10.97 10.07,13.13 C11.18,15.21 11.85,15.38 13.90,14.09 ZM 23.55 10.93 C23.62,10.97 23.66,11.00 23.69,11.00 C23.86,11.00 24.00,8.52 24.00,5.50 L 24.00 11.35 ZM 15.99 18.76 C17.24,18.29 19.00,17.18 20.46,15.90 L 20.34 16.01 C18.48,17.64 17.44,18.43 15.99,18.76 ZM 20.50 8.00 L 20.51 8.02 C18.29,5.88 17.05,5.21 14.30,5.05 C17.38,5.21 18.43,5.83 20.50,8.00 Z" fill="rgb(243,245,245)"/>
<path d="M 0.00 19.50 C0.00,14.56 0.43,14.18 3.21,16.69 C4.35,17.72 7.34,18.54 10.88,18.80 C16.27,19.19 16.94,18.99 20.34,16.01 L 24.00 12.79 L 24.00 18.40 L 24.00 24.00 L 12.00 24.00 L 0.00 24.00 L 0.00 19.50 ZM 20.50 8.00 C17.96,5.35 16.96,5.00 11.89,5.00 C7.18,5.00 5.60,5.46 3.08,7.59 L 0.00 10.18 L 0.00 5.09 L 0.00 0.00 L 12.00 0.00 L 24.00 0.00 L 24.00 5.50 C24.00,8.52 23.86,11.00 23.69,11.00 C23.51,11.00 22.08,9.65 20.50,8.00 Z" fill="rgb(253,253,253)"/>
</g>
</svg>